<?xml version="1.0" standalone="no"?><!DOCTYPE svg PUBLIC "-//W3C//DTD SVG 1.1//EN" "http://www.w3.org/Graphics/SVG/1.1/DTD/svg11.dtd"><svg xmlns:xlink="http://www.w3.org/1999/xlink" version="1.1" style="font-family:'lucida grande', 'lucida sans unicode', arial, helvetica, sans-serif;font-size:12px;" xmlns="http://www.w3.org/2000/svg" width="600" height="500"><desc>Created with Highmaps 1.0.4</desc><defs><clipPath id="highcharts-5"><rect x="0" y="0" width="580" height="475"></rect></clipPath></defs><rect x="0" y="0" width="600" height="500" strokeWidth="0" fill="#FFFFFF" class=" highcharts-background"></rect><g class="highcharts-grid" ></g><g class="highcharts-grid" ></g><g class="highcharts-axis" ></g><g class="highcharts-axis" ></g><g class="highcharts-series-group" ><g class="highcharts-series" visibility="visible"  transform="translate(10,10) scale(1 1)" clip-path="url(#highcharts-5)"><g transform="translate(0,0) scale(1 1)"><path fill="#7cb5ec" d="M 338.8790322580645 178.44239631336404 L 338.26612903225805 179.71198156682027 337.0403225806452 179.0552995391705 337.5218894009217 178.04838709677418 338.8790322580645 178.44239631336404 M 336.9965437788018 173.36405529953916 L 337.8721198156682 173.27649769585253 338.22235023041475 174.02073732718893 336.77764976958525 174.32718894009216 336.9965437788018 173.36405529953916 M 333.93202764976957 174.3709677419355 L 336.3836405529954 176.12211981566819 333.58179723502303 178.6175115207373 332.48732718894007 176.77880184331795 329.7730414746544 175.81566820276498 333.93202764976957 174.3709677419355 M 367.7730414746544 162.5069124423963 L 367.3790322580645 162.7258064516129 366.72235023041475 163.07603686635943 367.20391705069125 163.11981566820276 367.20391705069125 163.11981566820276 367.24769585253455 163.11981566820276 367.3352534562212 163.07603686635943 366.9412442396313 163.38248847926266 366.1532258064516 163.9516129032258 366.24078341013825 165.44009216589862 366.1532258064516 166.57834101382488 365.9781105990783 167.67281105990781 362.03801843317973 169.1175115207373 361.7315668202765 171.35023041474653 363.4389400921659 172.66359447004606 364.83986175115206 175.6405529953917 368.5610599078341 180.0184331797235 370.0057603686636 181.5069124423963 368.4735023041475 182.51382488479263 368.12327188940094 186.32258064516128 364.6209677419355 185.8847926267281 362.4758064516129 187.81105990783408 358.62327188940094 185.35944700460828 352.80069124423966 182.7327188940092 347.0218894009217 186.6290322580645 347.24078341013825 180.32488479262673 345.83986175115206 180.14976958525344 344.78917050691246 182.2511520737327 342.11866359447004 181.463133640553 339.0979262672811 176.60368663594468 338.3099078341014 170.95622119815667 342.03110599078343 168.94239631336404 341.41820276497697 168.19815668202764 348.1163594470046 164.73963133640552 349.91129032258067 165.00230414746542 351.44354838709677 162.37557603686636 358.8859447004608 163.11981566820276 365.67165898617515 162.33179723502303 366.3721198156682 161.19354838709677 367.028801843318 161.58755760368663 367.7730414746544 162.5069124423963 M 330.7361751152074 183.389400921659 L 329.64170506912444 181.7258064516129 334.36981566820276 179.71198156682027 335.9896313364055 179.01152073732717 339.0541474654378 180.36866359447004 335.37672811059906 184.26497695852532 333.10023041474653 184.8778801843318 332.7062211981567 187.81105990783408 331.43663594470047 188.02995391705068 332.44354838709677 185.75345622119815 329.991935483871 184.6589861751152 330.7361751152074 183.389400921659 Z" vector-effect="non-scaling-stroke" stroke="silver" stroke-width="1" class=" highcharts-name-estonia highcharts-key-ee"></path><path fill="#7cb5ec" d="M 264.19239631336404 146.92165898617512 L 266.9942396313364 149.110599078341 268.70161290322585 151.2995391705069 267.6947004608295 155.58986175115206 265.06797235023043 156.42165898617512 267.38824884792626 162.28801843317973 267.03801843317973 167.3663594470046 264.7615207373272 170.21198156682027 264.67396313364054 170.25576036866357 262.9228110599079 170.60599078341014 263.2730414746544 171.91935483870967 261.9158986175115 174.6336405529954 262.8790322580645 178.52995391705068 262.0034562211982 182.7327188940092 260.5149769585254 181.85714285714286 260.0334101382489 180.5 256.44354838709677 179.75576036866357 254.21082949308757 175.29032258064515 254.12327188940094 178.70506912442394 250.79608294930875 182.38248847926266 249.04493087557606 182.38248847926266 241.07718894009219 191.18202764976957 238.49423963133643 193.06451612903226 234.8168202764977 194.02764976958525 230.92050691244242 193.72119815668202 227.81221198156683 192.4516129032258 228.99423963133643 191.18202764976957 224.48502304147468 188.86175115207374 222.60253456221199 187.06682027649768 221.28917050691246 184.04608294930875 221.98963133640555 180.45622119815667 225.0541474654378 182.33870967741936 224.1347926267281 179.97465437788017 226.71774193548387 177.69815668202764 225.66705069124424 176.03456221198155 221.68317972350232 177.3917050691244 219.97580645161293 174.32718894009216 222.1209677419355 171.56912442396313 223.74078341013825 172.4447004608295 224.74769585253458 171.43778801843317 223.21543778801845 170.16820276497694 225.360599078341 168.98617511520737 226.63018433179724 165.74654377880182 229.47580645161293 162.7258064516129 227.0241935483871 163.99539170506912 223.6094470046083 167.80414746543778 223.04032258064518 165.26497695852532 220.85138248847926 165.44009216589862 221.639400921659 161.45622119815667 222.29608294930875 162.0253456221198 221.77073732718895 161.23732718894007 224.04723502304148 159.74884792626727 224.22235023041475 158.74193548387095 221.5956221198157 161.0184331797235 219.49423963133643 157.82258064516128 220.28225806451613 154.7142857142857 222.82142857142858 155.1520737327189 225.71082949308757 154.10138248847926 228.03110599078343 155.1958525345622 227.5057603686636 153.4447004608295 222.51497695852535 154.4516129032258 220.45737327188942 152.56912442396313 220.1947004608295 149.98617511520737 222.77764976958525 148.41013824884791 220.6324884792627 147.27188940092165 220.6324884792627 145.9147465437788 223.12788018433181 143.9447004608295 225.3168202764977 144.9516129032258 230.04493087557606 145.47695852534562 223.52188940092168 143.55069124423963 222.29608294930875 139.91705069124424 224.48502304147468 140.1359447004608 224.6163594470046 139.08525345622118 225.49193548387098 139.04147465437788 225.8421658986175 140.22350230414744 225.40437788018434 140.26728110599078 226.71774193548387 140.39861751152074 227.41820276497697 139.04147465437788 231.53341013824885 137.3778801843318 229.1693548387097 137.1589861751152 229.34447004608296 135.27649769585253 231.05184331797236 135.97695852534562 233.94124423963135 134.926267281106 236.39285714285714 136.4147465437788 236.4804147465438 134.7073732718894 233.24078341013825 133.963133640553 233.02188940092168 131.2926267281106 235.16705069124424 130.3294930875576 236.43663594470047 131.68663594470044 239.23847926267283 130.94239631336404 239.93894009216592 129.23502304147465 241.29608294930875 132.21198156682027 243.00345622119818 132.2995391705069 240.4205069124424 129.19124423963132 242.6094470046083 129.01612903225805 242.52188940092168 128.49078341013825 241.90898617511522 128.62211981566819 241.03341013824885 127.70276497695852 242.30299539170508 127.52764976958525 242.39055299539172 127.74654377880184 242.25921658986175 126.91474654377879 244.3168202764977 125.2073732718894 246.81221198156683 126.12672811059907 246.2430875576037 124.2442396313364 249.35138248847926 122.49308755760369 251.67165898617512 126.60829493087557 252.80990783410138 124.81336405529953 255.69930875576037 125.42626728110598 254.95506912442397 123.71889400921658 256.96889400921657 121.48617511520737 259.4205069124424 120.39170506912441 257.3191244239631 119.29723502304147 259.5518433179724 117.58986175115207 256.53110599078343 118.55299539170507 257.1877880184332 119.99769585253456 253.46658986175117 123.32488479262672 250.6209677419355 124.15668202764977 249.9205069124424 121.88018433179722 248.47580645161293 120.8294930875576 252.19700460829495 118.72811059907833 250.70852534562212 118.46543778801843 252.02188940092168 115.35714285714285 256.04953917050693 111.76728110599078 256.39976958525347 110.1036866359447 258.7638248847926 112.73041474654377 259.508064516129 110.45391705069125 258.80760368663596 108.70276497695852 261.25921658986175 107.43317972350229 257.88824884792626 107.25806451612902 258.7638248847926 105.9447004608295 265.286866359447 103.09907834101382 263.7983870967742 101.30414746543778 265.33064516129036 99.33410138248847 264.8928571428571 97.10138248847926 263.66705069124424 96.53225806451613 265.8559907834101 92.19815668202764 267.08179723502303 90.79723502304147 266.2062211981567 89.96543778801843 268.4827188940092 87.6889400921659 267.6509216589862 86.28801843317972 267.91359447004606 83.39861751152074 269.31451612903226 81.07834101382488 270.6716589861751 80.94700460829493 269.4896313364055 79.32718894009216 272.68548387096774 78.58294930875576 273.2546082949309 76.21889400921658 275.3559907834101 75.34331797235022 276.01267281105993 76.2626728110599 277.1947004608295 73.94239631336406 274.786866359447 75.34331797235022 273.03571428571433 75.12442396313364 274.83064516129036 71.79723502304147 278.9458525345622 68.07603686635944 277.80760368663596 67.41935483870968 276.05645161290323 68.29493087557603 274.8744239631336 67.37557603686636 279.82142857142856 64.83640552995391 279.2085253456221 64.57373271889401 278.5956221198157 64.44239631336406 277.1071428571429 64.39861751152074 278.1140552995392 63.04147465437788 280.9596774193549 62.29723502304147 280.8283410138249 64.17972350230414 281.9665898617511 66.0184331797235 282.5794930875576 61.46543778801843 281.1347926267281 60.37096774193548 283.58640552995394 58.9700460829493 284.286866359447 59.976958525345616 287.6578341013825 58.26958525345622 287.5264976958525 56.91244239631336 285.25 58.44470046082949 282.7546082949309 58.61981566820276 282.9735023041475 55.905529953917046 287.7453917050691 52.096774193548384 286.43202764976957 52.1405529953917 287.39516129032256 49.47004608294931 289.14631336405535 48.244239631336406 288.6209677419355 46.755760368663594 289.71543778801845 43.953917050691246 291.3790322580645 46.23041474654378 292.86751152073737 45.617511520737324 290.5472350230415 44.39170506912442 290.5472350230415 43.38479262672811 292.60483870967744 42.596774193548384 292.95506912442397 40.18894009216589 295.9758064516129 38.875576036866356 296.6324884792627 41.195852534562206 297.4642857142857 36.81797235023041 298.6900921658986 37.34331797235023 298.5587557603687 43.77880184331797 299.6532258064516 41.4147465437788 299.3905529953917 38.875576036866356 302.14861751152074 37.036866359447004 302.84907834101386 34.8479262672811 305.6071428571429 37.12442396313364 304.77534562211986 34.147465437788014 301.62327188940094 32.615207373271886 303.11175115207374 30.951612903225804 303.54953917050693 30.907834101382488 303.54953917050693 31.258064516129032 303.8559907834101 31.47695852534562 303.89976958525347 30.907834101382488 306.176267281106 30.688940092165897 309.5034562211981 31.30184331797235 310.20391705069125 33.57834101382488 311.7361751152074 34.366359447004605 312.4804147465438 33.22811059907834 310.68548387096774 32.615207373271886 311.5172811059908 28.762672811059907 313.7062211981567 25.8294930875576 315.28225806451616 22.370967741935484 314.93202764976957 19.700460829493085 318.5218894009217 20.576036866359445 320.71082949308754 20.138248847926267 318.0403225806452 25.566820276497694 318.69700460829495 25.085253456221196 319.13479262672814 28.018433179723502 318.3905529953917 29.244239631336406 319.4850230414747 31.03917050691244 320.66705069124424 27.79953917050691 320.0541474654378 27.58064516129032 321.7615207373272 23.07142857142857 322.59331797235023 19.525345622119815 323.6877880184332 18.08064516129032 324.5195852534562 22.23963133640553 324.6947004608295 26.004608294930875 326.6209677419355 21.933179723502302 326.27073732718895 20.400921658986174 327.6278801843318 18.60599078341014 325.6578341013825 18.08064516129032 327.3652073732719 17.161290322580644 326.971198156682 15.32258064516129 331.4804147465438 15.76036866359447 330.5610599078341 19.39400921658986 328.897465437788 21.62672811059908 331.39285714285717 19.65668202764977 330.16705069124424 23.027649769585253 332.13709677419354 23.46543778801843 332.3122119815668 19.17511520737327 332.92511520737327 16.898617511520737 335.85829493087556 17.336405529953915 335.9458525345622 18.56221198156682 338.61635944700464 17.555299539170505 344.87672811059906 21.670506912442395 342.7315668202765 22.808755760368662 341.6808755760369 25.610599078341014 335.2016129032258 26.048387096774192 334.7200460829493 26.836405529953915 339.9735023041475 27.493087557603687 340.8052995391705 30.513824884792626 342.95046082949307 29.200460829493085 342.42511520737327 28.06221198156682 345.6647465437788 28.105990783410135 346.80299539170505 31.652073732718893 343.9573732718894 31.21428571428571 343.1693548387097 35.066820276497694 340.89285714285717 36.81797235023041 341.0241935483871 39.00691244239631 340.0172811059908 40.495391705069125 338.9665898617512 38.17511520737327 340.2799539170507 34.41013824884792 338.5725806451613 31.958525345622117 334.89516129032256 31.170506912442395 331.7430875576037 28.28110599078341 328.76612903225805 31.345622119815665 326.0518433179723 31.783410138248847 324.6071428571429 35.15437788018433 324.6947004608295 41.983870967741936 325.5264976958525 44.26036866359447 325.2200460829493 46.055299539170505 323.2937788018433 47.456221198156676 323.38133640552996 49.776497695852534 322.37442396313367 51.00230414746544 321.19239631336404 49.86405529953917 317.33986175115206 48.63824884792626 316.6831797235023 50.126728110599075 314.36290322580646 51.877880184331794 313.35599078341016 51.13364055299539 310.5103686635945 51.30875576036866 309.9850230414746 49.907834101382484 305.6947004608295 44.698156682027644 304.03110599078343 44.61059907834101 302.93663594470047 46.23041474654378 303.2430875576037 48.06912442396313 301.3168202764977 48.41935483870967 298.9089861751152 48.98847926267281 300.22235023041475 50.30184331797235 300.22235023041475 53.62903225806451 299.12788018433184 55.38018433179723 300.57258064516134 55.99308755760369 299.30299539170505 57.875576036866356 294.75 56.43087557603686 290.5472350230415 56.5184331797235 291.07258064516134 61.46543778801843 290.0218894009217 64.09216589861751 287.0011520737327 62.6036866359447 284.7246543778802 65.40552995391705 283.5426267281106 70.1774193548387 281.9228110599079 72.1036866359447 283.7615207373272 74.86175115207372 283.8052995391705 76.83179723502303 282.0979262672811 79.15207373271889 279.33986175115206 84.536866359447 279.82142857142856 87.33870967741935 277.72004608294935 89.08986175115207 275.0057603686636 89.61520737327189 275.79377880184336 93.24884792626727 275.53110599078343 100.1221198156682 274.61175115207374 103.18663594470046 271.3283410138249 109.8847926267281 274.0426267281106 111.59216589861751 274.4804147465438 114.61290322580645 273.3421658986175 117.1958525345622 269.31451612903226 116.36405529953916 266.29377880184336 118.20276497695852 263.53571428571433 122.93087557603685 263.7546082949309 124.76958525345621 262.6163594470046 126.91474654377879 264.0610599078341 130.5921658986175 263.40437788018437 131.5990783410138 263.4481566820276 135.9331797235023 264.93663594470047 140.39861751152074 264.19239631336404 146.92165898617512 M 280.21543778801845 64.48617511520737 L 279.9965437788019 64.74884792626727 280.4781105990784 64.48617511520737 280.21543778801845 64.48617511520737 M 223.6094470046083 162.41935483870967 L 223.04032258064518 162.59447004608293 223.47811059907835 162.9884792626728 223.6094470046083 162.41935483870967 M 225.0979262672811 178.17972350230414 L 224.6163594470046 178.00460829493088 224.79147465437788 177.52304147465438 225.75460829493088 177.6543778801843 225.0979262672811 178.17972350230414 M 220.4135944700461 177.1290322580645 L 220.4135944700461 178.70506912442394 219.62557603686636 178.31105990783408 220.06336405529956 175.55299539170505 220.4135944700461 177.1290322580645 M 220.45737327188942 170.2995391705069 L 221.07027649769586 171.30645161290323 219.53801843317973 171.0437788018433 219.80069124423963 169.73041474654377 220.45737327188942 170.2995391705069 M 222.25230414746545 170.73732718894007 L 221.02649769585256 170.7811059907834 220.76382488479263 169.29262672811058 221.8582949308756 168.98617511520737 222.25230414746545 170.73732718894007 M 223.47811059907835 167.45391705069125 L 223.25921658986175 169.38018433179724 222.3836405529954 169.51152073732717 222.20852534562212 167.54147465437788 223.47811059907835 167.45391705069125 M 220.93894009216592 167.19124423963132 L 220.93894009216592 168.19815668202764 220.36981566820276 167.54147465437788 220.6324884792627 166.75345622119815 220.93894009216592 167.19124423963132 M 220.10714285714286 163.99539170506912 L 220.10714285714286 165.52764976958525 219.14400921658986 164.30184331797236 219.4504608294931 162.37557603686636 220.10714285714286 163.99539170506912 M 219.84447004608296 161.41244239631337 L 220.6324884792627 161.71889400921657 220.80760368663596 162.81336405529953 219.62557603686636 161.58755760368663 219.84447004608296 161.41244239631337 M 219.58179723502306 153.4447004608295 L 220.1509216589862 153.79493087557603 218.9251152073733 154.4516129032258 219.01267281105993 153.2695852534562 219.58179723502306 153.4447004608295 M 220.6324884792627 143.85714285714286 L 221.639400921659 144.4700460829493 220.32603686635946 145.34562211981566 219.6693548387097 144.51382488479263 220.6324884792627 143.85714285714286 M 221.42050691244242 142.5 L 221.90207373271892 142.67511520737327 221.50806451612905 143.55069124423963 220.93894009216592 142.14976958525344 221.42050691244242 142.5 M 224.92281105990784 138.55990783410138 L 225.75460829493088 138.25345622119815 225.62327188940094 138.69124423963132 224.39746543778801 138.51612903225805 224.92281105990784 138.55990783410138 M 227.68087557603687 138.51612903225805 L 226.45506912442397 139.6543778801843 226.10483870967744 138.25345622119815 226.9804147465438 137.46543778801842 227.68087557603687 138.51612903225805 M 228.60023041474656 137.3778801843318 L 229.213133640553 137.90322580645162 227.85599078341014 137.81566820276498 227.4619815668203 137.3778801843318 228.60023041474656 137.3778801843318 M 232.84677419354838 133.83179723502303 L 232.89055299539172 134.26958525345623 231.44585253456222 134.75115207373273 231.57718894009219 133.83179723502303 232.84677419354838 133.83179723502303 M 232.3652073732719 132.2557603686636 L 233.02188940092168 132.2557603686636 232.75921658986175 133.30645161290323 232.19009216589862 132.82488479262673 232.3652073732719 132.2557603686636 M 238.9320276497696 129.58525345622118 L 238.1877880184332 130.3294930875576 237.57488479262673 129.8917050691244 237.88133640552996 129.3663594470046 238.9320276497696 129.58525345622118 M 237.53110599078343 130.3294930875576 L 236.61175115207374 131.24884792626727 235.91129032258064 129.80414746543778 236.87442396313364 130.28571428571428 237.53110599078343 130.3294930875576 M 241.25230414746545 128.53456221198155 L 240.5956221198157 128.53456221198155 240.46428571428572 127.83410138248847 240.8582949308756 127.83410138248847 241.25230414746545 128.53456221198155 M 240.55184331797236 128.62211981566819 L 239.54493087557606 128.8847926267281 239.06336405529956 128.31566820276498 239.93894009216592 127.52764976958525 240.55184331797236 128.62211981566819 M 240.1140552995392 126.25806451612902 L 238.40668202764977 125.82027649769584 239.58870967741936 124.55069124423963 240.5956221198157 125.64516129032258 240.1140552995392 126.25806451612902 M 245.5426267281106 122.7995391705069 L 245.93663594470047 123.89400921658985 242.43433179723502 125.11981566820276 241.16474654377882 124.68202764976958 242.74078341013825 122.97465437788019 245.5426267281106 122.7995391705069 M 244.22926267281107 120.39170506912441 L 244.360599078341 121.48617511520737 243.8790322580645 121.88018433179722 241.42741935483872 122.09907834101382 244.22926267281107 120.39170506912441 M 258.676267281106 109.66589861751152 L 259.20161290322585 110.23502304147465 259.0702764976959 110.8479262672811 258.5887096774194 110.5852534562212 258.676267281106 109.66589861751152 M 257.88824884792626 109.97235023041475 L 258.9827188940092 111.72350230414746 257.6693548387097 111.3294930875576 257.10023041474653 109.44700460829493 257.88824884792626 109.97235023041475 M 258.54493087557603 109.44700460829493 L 258.36981566820276 110.1036866359447 257.6255760368664 109.18433179723502 258.2822580645161 108.9216589861751 258.54493087557603 109.44700460829493 M 257.713133640553 106.11981566820276 L 257.01267281105993 106.25115207373271 255.61175115207374 106.82027649769584 257.05645161290323 105.59447004608295 257.713133640553 106.11981566820276 M 255.56797235023043 106.6889400921659 L 255.13018433179724 106.90783410138248 255.39285714285714 105.9447004608295 257.1877880184332 105.28801843317972 255.56797235023043 106.6889400921659 M 260.77764976958525 103.44930875576037 L 259.5956221198157 104.36866359447004 259.37672811059906 104.19354838709677 259.7269585253456 103.49308755760369 260.77764976958525 103.44930875576037 M 263.40437788018437 102.88018433179722 L 262.8790322580645 104.10599078341014 262.0034562211982 103.88709677419354 263.0103686635945 102.04838709677419 263.40437788018437 102.88018433179722 M 264.01728110599083 98.1958525345622 L 264.5426267281106 99.72811059907833 262.397465437788 102.04838709677419 262.57258064516134 100.20967741935483 264.01728110599083 98.1958525345622 M 261.5218894009217 95.83179723502303 L 261.3905529953917 97.1889400921659 260.5149769585254 96.88248847926266 260.8652073732719 95.87557603686635 261.5218894009217 95.83179723502303 M 265.59331797235023 92.0668202764977 L 264.323732718894 93.33640552995391 263.66705069124424 93.20506912442396 264.19239631336404 92.02304147465438 265.59331797235023 92.0668202764977 M 264.8052995391705 89.39631336405529 L 265.06797235023043 90.27188940092165 264.45506912442397 90.97235023041475 263.22926267281105 91.62903225806451 264.8052995391705 89.39631336405529 M 265.81221198156686 87.77649769585253 L 266.2062211981567 88.52073732718894 265.59331797235023 88.82718894009216 265.33064516129036 88.38940092165898 265.81221198156686 87.77649769585253 M 266.51267281105993 86.06912442396313 L 266.25 87.07603686635944 265.7246543778802 86.7258064516129 265.7684331797235 85.9815668202765 266.51267281105993 86.06912442396313 M 272.68548387096774 76.83179723502303 L 272.5979262672811 78.23271889400921 271.4596774193549 77.40092165898618 271.76612903225805 76.61290322580645 272.68548387096774 76.83179723502303 M 273.2546082949309 72.71658986175115 L 273.21082949308754 73.0668202764977 272.4228110599079 73.37327188940091 273.0794930875576 72.49769585253456 273.2546082949309 72.71658986175115 M 276.6255760368664 65.27419354838709 L 277.23847926267285 65.84331797235022 275.6624423963134 66.10599078341014 275.6624423963134 65.36175115207372 276.6255760368664 65.27419354838709 M 266.3375576036866 64.74884792626727 L 266.55645161290323 66.10599078341014 264.93663594470047 68.07603686635944 265.7684331797235 65.0552995391705 266.3375576036866 64.74884792626727 M 267.7822580645161 64.66129032258064 L 267.08179723502303 65.66820276497695 266.7315668202765 64.70506912442396 267.9573732718894 63.785714285714285 267.7822580645161 64.66129032258064 M 275.0057603686636 61.815668202764975 L 274.5241935483871 61.815668202764975 274.91820276497697 61.07142857142857 275.2684331797235 61.33410138248848 275.0057603686636 61.815668202764975 M 271.76612903225805 61.07142857142857 L 271.59101382488484 61.947004608294925 271.3283410138249 61.377880184331794 270.8905529953917 60.896313364055295 271.76612903225805 61.07142857142857 M 270.4527649769585 61.77188940092166 L 270.8467741935484 62.91013824884792 269.008064516129 64.44239631336406 268.176267281106 62.20967741935483 270.4527649769585 61.77188940092166 M 276.10023041474653 59.14516129032258 L 274.34907834101386 61.6405529953917 271.67857142857144 63.216589861751146 273.64861751152074 59.4516129032258 276.10023041474653 59.14516129032258 M 282.14170506912444 58.794930875576036 L 280.69700460829495 59.36405529953917 281.0034562211981 57.744239631336406 281.74769585253455 57.39400921658986 282.14170506912444 58.794930875576036 M 274.13018433179724 58.53225806451613 L 273.2983870967742 57.744239631336406 275.2246543778802 57.70046082949308 274.7430875576037 58.48847926267281 274.13018433179724 58.53225806451613 M 285.11866359447004 54.15437788018433 L 283.8928571428571 54.723502304147466 283.84907834101386 54.066820276497694 284.54953917050693 52.84101382488479 285.11866359447004 54.15437788018433 M 285.55645161290323 52.75345622119816 L 285.46889400921657 51.96543778801843 286.56336405529953 52.57834101382488 285.6440092165899 53.62903225806451 285.55645161290323 52.75345622119816 M 274.7430875576037 53.45391705069124 L 274.17396313364054 53.366359447004605 274.3052995391705 52.79723502304147 274.6993087557604 52.79723502304147 274.7430875576037 53.45391705069124 M 281.57258064516134 51.615207373271886 L 282.2730414746544 51.615207373271886 282.360599078341 52.70967741935483 280.8283410138249 51.74654377880184 281.57258064516134 51.615207373271886 M 275.79377880184336 52.6221198156682 L 276.75691244239636 56.255760368663594 275.53110599078343 57.35023041474654 272.07258064516134 56.12442396313364 275.04953917050693 54.54838709677419 274.8744239631336 52.05299539170507 275.79377880184336 52.6221198156682 M 286.213133640553 50.958525345622114 L 285.90668202764977 50.38940092165898 286.3006912442396 49.68894009216589 286.7822580645161 50.03917050691244 286.213133640553 50.958525345622114 M 278.68317972350235 51.22119815668203 L 276.88824884792626 52.1405529953917 277.41359447004606 50.214285714285715 279.6900921658986 47.23732718894009 279.6900921658986 49.513824884792626 278.68317972350235 51.22119815668203 M 291.55414746543784 38.4815668202765 L 292.64861751152074 40.14516129032258 291.9481566820276 42.29032258064516 289.14631336405535 43.42857142857142 288.83986175115206 41.064516129032256 289.4965437788019 39.88248847926267 291.4665898617511 39.75115207373272 291.55414746543784 38.4815668202765 M 299.9596774193549 38.306451612903224 L 299.4781105990784 38.437788018433174 299.3467741935484 37.168202764976954 300.0034562211981 36.905529953917046 299.9596774193549 38.306451612903224 M 341.94354838709677 28.762672811059907 L 342.2937788018433 28.937788018433178 340.8490783410138 30.119815668202765 341.0241935483871 27.97465437788018 341.94354838709677 28.762672811059907 M 295.40668202764977 38.26267281105991 L 294.57488479262673 38.61290322580645 294.61866359447004 37.5184331797235 296.0195852534562 36.59907834101382 295.40668202764977 38.26267281105991 M 300.9228110599079 35.066820276497694 L 301.5357142857143 35.285714285714285 300.9665898617511 36.24884792626728 300.0472350230415 35.67972350230414 300.9228110599079 35.066820276497694 M 292.95506912442397 35.67972350230414 L 294.7062211981567 36.51152073732719 294.1808755760369 38.656682027649765 292.9988479262673 39.48847926267281 290.9412442396314 37.605990783410135 292.95506912442397 35.67972350230414 M 291.07258064516134 36.02995391705069 L 291.860599078341 35.8110599078341 290.76612903225805 37.12442396313364 290.5472350230415 35.46082949308756 291.07258064516134 36.02995391705069 M 300.4850230414746 34.54147465437788 L 300.17857142857144 34.67281105990783 300.0472350230415 33.6221198156682 300.528801843318 34.147465437788014 300.4850230414746 34.54147465437788 M 294.39976958525347 35.19815668202765 L 293.5241935483871 35.066820276497694 293.4804147465438 34.49769585253456 293.83064516129036 34.453917050691246 294.39976958525347 35.19815668202765 M 299.8721198156682 34.147465437788014 L 299.1716589861751 35.15437788018433 298.16474654377885 34.54147465437788 298.82142857142856 32.6589861751152 299.8721198156682 34.147465437788014 M 292.5610599078341 33.27188940092166 L 292.86751152073737 34.8479262672811 292.3421658986175 35.15437788018433 291.8168202764977 34.76036866359447 292.5610599078341 33.27188940092166 M 294.79377880184336 33.05299539170507 L 295.45046082949307 34.016129032258064 297.0702764976959 34.585253456221196 295.6693548387097 35.46082949308756 294.79377880184336 33.05299539170507 M 307.83986175115206 29.15668202764977 L 309.5472350230415 30.688940092165897 306.9642857142857 30.60138248847926 306.9205069124424 29.33179723502304 307.83986175115206 29.15668202764977 M 310.860599078341 25.479262672811057 L 311.91129032258067 27.274193548387096 311.0794930875576 29.463133640552993 309.897465437788 30.163594470046082 308.5841013824885 28.149769585253456 310.860599078341 25.479262672811057 M 311.9988479262673 23.99078341013825 L 313.57488479262673 24.86635944700461 312.17396313364054 26.486175115207374 311.2546082949309 24.209677419354836 311.9988479262673 23.99078341013825 M 309.8099078341014 22.546082949308754 L 309.67857142857144 24.77880184331797 308.27764976958525 27.01152073732719 305.1693548387097 28.28110599078341 305.73847926267285 25.26036866359447 307.79608294930875 25.610599078341014 309.8099078341014 22.546082949308754 M 312.3052995391705 19.788018433179722 L 312.61175115207374 21.057603686635943 311.7361751152074 20.663594470046082 311.7799539170507 19.65668202764977 312.3052995391705 19.788018433179722 M 315.1071428571429 18.08064516129032 L 315.28225806451616 18.95622119815668 314.4942396313364 18.693548387096772 314.80069124423966 17.949308755760367 315.1071428571429 18.08064516129032 M 318.74078341013825 16.37327188940092 L 321.3675115207373 17.949308755760367 318.78456221198155 19.525345622119815 317.4274193548387 18.255760368663594 318.74078341013825 16.37327188940092 M 173.78917050691246 13.877880184331797 L 173.1324884792627 15.672811059907833 169.84907834101384 16.15437788018433 168.3168202764977 17.42396313364055 167.8790322580645 16.504608294930875 170.94354838709677 15.278801843317972 172.1693548387097 13.834101382488479 173.78917050691246 13.877880184331797 M 280.0841013824885 59.4516129032258 L 278.9896313364055 59.10138248847926 278.508064516129 60.80875576036866 276.1440092165899 60.80875576036866 276.36290322580646 57.4815668202765 277.6324884792627 56.43087557603686 277.1509216589862 54.15437788018433 277.9389400921659 52.18433179723502 279.16474654377885 52.00921658986175 279.16474654377885 54.37327188940092 280.3467741935484 54.8110599078341 280.8721198156682 52.6221198156682 282.66705069124424 55.07373271889401 282.360599078341 57.218894009216584 280.5218894009217 57.56912442396313 280.0841013824885 59.4516129032258 M 283.4988479262673 45.7926267281106 L 285.60023041474653 45.7926267281106 284.89976958525347 44.566820276497694 286.6947004608295 44.61059907834101 287.39516129032256 42.77188940092166 288.5334101382489 43.953917050691246 288.5771889400922 48.156682027649765 283.36751152073737 50.38940092165898 284.5057603686636 46.84331797235023 283.4988479262673 45.7926267281106 Z" vector-effect="non-scaling-stroke" stroke="silver" stroke-width="1" class=" highcharts-name-norway highcharts-key-no"></path><path fill="#7cb5ec" d="M 299.3905529953917 200.463133640553 L 299.4781105990784 201.9516129032258 296.1509216589862 214.91013824884791 295.713133640553 210.9700460829493 297.508064516129 206.3732718894009 298.73387096774195 201.03225806451613 299.3905529953917 200.463133640553 M 312.96198156682027 190.70046082949307 L 313.7937788018433 190.91935483870967 311.8675115207373 191.926267281106 312.08640552995394 191.05069124423963 312.96198156682027 190.70046082949307 M 262.74769585253455 193.6336405529954 L 262.26612903225805 194.85944700460828 261.3467741935484 194.99078341013825 261.21543778801845 193.85253456221199 262.74769585253455 193.6336405529954 M 306.2638248847926 177.8732718894009 L 306.0011520737327 178.52995391705068 305.56336405529953 178.26728110599078 306.22004608294935 177.1290322580645 306.2638248847926 177.8732718894009 M 306.35138248847926 174.8963133640553 L 306.4827188940092 175.24654377880182 306.39516129032256 175.68433179723502 305.1693548387097 174.8963133640553 306.35138248847926 174.8963133640553 M 307.008064516129 171.65668202764977 L 306.35138248847926 173.1889400921659 305.9573732718894 172.4447004608295 306.39516129032256 171.70046082949307 307.008064516129 171.65668202764977 M 308.0587557603687 170.64976958525344 L 308.4527649769585 170.036866359447 308.3652073732719 170.86866359447004 307.971198156682 170.69354838709677 308.0587557603687 170.64976958525344 M 304.07488479262673 160.23041474654377 L 305.03801843317973 162.0253456221198 303.94354838709677 161.32488479262673 303.7684331797235 159.6175115207373 304.07488479262673 160.23041474654377 M 313.13709677419354 116.23271889400921 L 313.2684331797235 117.02073732718894 313.04953917050693 117.1958525345622 312.7430875576037 115.88248847926266 313.13709677419354 116.23271889400921 M 264.19239631336404 146.92165898617512 L 264.93663594470047 140.39861751152074 263.4481566820276 135.9331797235023 263.40437788018437 131.5990783410138 264.0610599078341 130.5921658986175 262.6163594470046 126.91474654377879 263.7546082949309 124.76958525345621 263.53571428571433 122.93087557603685 266.29377880184336 118.20276497695852 269.31451612903226 116.36405529953916 273.3421658986175 117.1958525345622 274.4804147465438 114.61290322580645 274.0426267281106 111.59216589861751 271.3283410138249 109.8847926267281 274.61175115207374 103.18663594470046 275.53110599078343 100.1221198156682 275.79377880184336 93.24884792626727 275.0057603686636 89.61520737327189 277.72004608294935 89.08986175115207 279.82142857142856 87.33870967741935 279.33986175115206 84.536866359447 282.0979262672811 79.15207373271889 283.8052995391705 76.83179723502303 283.7615207373272 74.86175115207372 281.9228110599079 72.1036866359447 283.5426267281106 70.1774193548387 284.7246543778802 65.40552995391705 287.0011520737327 62.6036866359447 290.0218894009217 64.09216589861751 291.07258064516134 61.46543778801843 290.5472350230415 56.5184331797235 294.75 56.43087557603686 299.30299539170505 57.875576036866356 300.57258064516134 55.99308755760369 299.12788018433184 55.38018433179723 300.22235023041475 53.62903225806451 300.22235023041475 50.30184331797235 298.9089861751152 48.98847926267281 301.3168202764977 48.41935483870967 302.8928571428571 49.11981566820276 306.0011520737327 52.40322580645161 309.3283410138249 54.635944700460826 313.04953917050693 55.117511520737324 315.32603686635946 58.2258064516129 318.25921658986175 60.327188940092164 317.602534562212 61.115207373271886 318.6094470046083 64.88018433179724 318.25921658986175 66.32488479262672 320.0541474654378 66.85023041474653 319.7914746543779 70.44009216589862 322.7684331797235 74.42396313364056 322.8122119815668 77.7073732718894 321.89285714285717 79.58986175115207 322.85599078341016 82.43548387096774 324.78225806451616 84.18663594470046 326.0956221198157 86.90092165898616 325.04493087557603 87.95161290322581 321.9804147465438 87.6889400921659 320.9735023041475 89.30875576036865 318.30299539170505 87.86405529953916 316.4205069124424 90.4032258064516 317.5149769585253 92.24193548387096 313.92511520737327 90.92857142857143 316.33294930875576 92.46082949308756 314.6255760368664 92.81105990783409 315.36981566820276 94.2995391705069 312.96198156682027 94.95622119815668 314.31912442396316 96.13824884792626 314.1877880184332 97.97695852534562 312.43663594470047 102.35483870967741 311.7361751152074 102.66129032258064 314.93202764976957 106.95161290322581 312.56797235023043 111.54838709677419 312.13018433179724 115.00691244239631 310.64170506912444 115.83870967741935 309.8536866359447 118.1589861751152 308.4965437788019 118.20276497695852 306.7453917050691 121.48617511520737 304.38133640552996 121.44239631336404 303.41820276497697 125.2073732718894 301.18548387096774 125.90783410138248 300.0472350230415 128.62211981566819 300.6163594470046 129.58525345622118 298.471198156682 131.02995391705068 298.471198156682 131.73041474654377 298.602534562212 131.3364055299539 298.9965437788019 131.3364055299539 298.8652073732719 132.0806451612903 298.471198156682 132.16820276497694 298.471198156682 132.95622119815667 296.7638248847926 135.58294930875576 295.05645161290323 134.4447004608295 294.61866359447004 136.23963133640552 295.88824884792626 138.47235023041475 295.3191244239631 141.93087557603687 295.88824884792626 144.86405529953916 294.0057603686636 146.83410138248848 294.8375576036866 147.97235023041475 295.40668202764977 154.27649769585253 296.6324884792627 157.34101382488478 298.9527649769585 160.01152073732717 301.05414746543784 159.8364055299539 306.9642857142857 164.25806451612902 308.9781105990784 167.58525345622118 305.34447004608296 172.4447004608295 302.84907834101386 173.75806451612902 307.35829493087556 174.6336405529954 304.7315668202765 174.76497695852532 305.86981566820276 176.8663594470046 301.8421658986175 180.0622119815668 301.4481566820276 179.40552995391704 301.4481566820276 180.10599078341014 301.0979262672811 180.0622119815668 300.9665898617511 178.52995391705068 300.70391705069125 178.04838709677418 300.8790322580645 180.89400921658986 296.80760368663596 184.3963133640553 297.0702764976959 186.10368663594468 295.8006912442396 192.58294930875576 294.31221198156686 193.94009216589862 296.6324884792627 199.10599078341014 295.45046082949307 202.95852534562212 296.41359447004606 204.53456221198155 292.38594470046087 217.0552995391705 290.28456221198155 215.69815668202764 288.5771889400922 216.66129032258064 284.11175115207374 216.8801843317972 284.7684331797235 218.3248847926267 282.7546082949309 218.45622119815667 281.0034562211981 221.2142857142857 282.3168202764977 224.8917050691244 281.09101382488484 226.64285714285714 278.9458525345622 226.24884792626727 274.65552995391704 227.5622119815668 272.2914746543779 226.64285714285714 272.90437788018437 223.49078341013825 271.897465437788 222.57142857142856 268.70161290322585 216.04838709677418 270.75921658986175 216.573732718894 269.4458525345622 214.20967741935482 271.28456221198155 213.68433179723502 271.065668202765 211.2327188940092 267.5195852534562 208.036866359447 265.11175115207374 201.16359447004606 264.2799539170507 202.4331797235023 264.10483870967744 199.14976958525344 262.4850230414747 196.43548387096774 262.9228110599079 192.84562211981566 261.25921658986175 193.32718894009216 260.64631336405535 192.4078341013825 263.05414746543784 191.2695852534562 263.0979262672811 191.7511520737327 263.2730414746544 190.35023041474653 261.12788018433184 190.87557603686636 260.471198156682 188.94930875576037 259.28917050691246 190.17511520737327 259.5956221198157 187.110599078341 258.41359447004606 182.2073732718894 259.0702764976959 180.63133640552994 260.5149769585254 181.85714285714286 262.0034562211982 182.7327188940092 262.8790322580645 178.52995391705068 261.9158986175115 174.6336405529954 263.2730414746544 171.91935483870967 264.67396313364054 170.25576036866357 267.03801843317973 167.3663594470046 267.38824884792626 162.28801843317973 265.06797235023043 156.42165898617512 267.6947004608295 155.58986175115206 268.70161290322585 151.2995391705069 264.19239631336404 146.92165898617512 M 308.14631336405535 193.6774193548387 L 310.24769585253455 192.9331797235023 312.3052995391705 192.84562211981566 310.5979262672811 194.24654377880182 310.90437788018437 197.8364055299539 311.91129032258067 198.27419354838707 308.62788018433184 202.2142857142857 308.32142857142856 204.62211981566819 306.4827188940092 200.7695852534562 306.22004608294935 197.6175115207373 308.14631336405535 193.6774193548387 Z" vector-effect="non-scaling-stroke" stroke="silver" stroke-width="1" class=" highcharts-name-sweden highcharts-key-se"></path><path fill="#7cb5ec" d="M 317.471198156682 163.55760368663593 L 318.434331797235 163.60138248847926 318.21543778801845 164.12672811059906 317.3836405529954 163.82027649769586 317.471198156682 163.55760368663593 M 315.676267281106 163.2073732718894 L 316.24539170506915 162.90092165898616 315.76382488479265 164.9147465437788 314.6693548387097 164.1705069124424 315.676267281106 163.2073732718894 M 312.17396313364054 162.5069124423963 L 311.64861751152074 163.4700460829493 311.21082949308754 162.81336405529953 311.5172811059908 161.80645161290323 312.17396313364054 162.5069124423963 M 313.44354838709677 160.0990783410138 L 315.85138248847926 160.97465437788017 314.713133640553 163.55760368663593 312.96198156682027 163.99539170506912 311.91129032258067 161.67511520737327 313.44354838709677 160.0990783410138 M 329.860599078341 161.45622119815667 L 329.991935483871 162.33179723502303 329.64170506912444 162.463133640553 329.24769585253455 161.45622119815667 329.860599078341 161.45622119815667 M 332.7937788018433 160.88709677419354 L 332.7062211981567 161.67511520737327 332.3122119815668 160.7995391705069 332.88133640552996 160.23041474654377 332.7937788018433 160.88709677419354 M 324.6509216589862 161.41244239631337 L 324.56336405529953 161.89400921658986 323.95046082949307 162.06912442396313 324.1693548387097 161.0622119815668 324.6509216589862 161.41244239631337 M 326.0956221198157 160.5806451612903 L 325.39516129032256 161.58755760368663 325.04493087557603 161.5437788018433 325.176267281106 160.62442396313364 326.0956221198157 160.5806451612903 M 326.9274193548387 161.14976958525344 L 326.4458525345622 160.62442396313364 327.0149769585253 160.0552995391705 326.9274193548387 160.62442396313364 326.9274193548387 161.14976958525344 M 332.0057603686636 159.44239631336404 L 331.4804147465438 162.06912442396313 330.16705069124424 162.28801843317973 329.64170506912444 159.92396313364054 332.0057603686636 159.44239631336404 M 328.4596774193548 158.3917050691244 L 329.5103686635945 158.21658986175115 328.28456221198155 159.22350230414744 327.1463133640553 159.3110599078341 328.4596774193548 158.3917050691244 M 326.31451612903226 158.8732718894009 L 325.1324884792627 158.30414746543778 325.57027649769583 157.25345622119815 326.4896313364055 158.56682027649768 326.31451612903226 158.8732718894009 M 322.7246543778802 156.55299539170505 L 322.7684331797235 157.42857142857142 322.41820276497697 157.25345622119815 321.89285714285717 156.46543778801842 322.7246543778802 156.55299539170505 M 321.58640552995394 156.68433179723502 L 321.4988479262673 157.25345622119815 321.0610599078341 155.80875576036865 321.4988479262673 155.76497695852532 321.58640552995394 156.68433179723502 M 320.62327188940094 152.7442396313364 L 320.57949308755764 152.21889400921657 321.41129032258067 151.69354838709677 321.14861751152074 152.39400921658986 320.62327188940094 152.7442396313364 M 314.9758064516129 122.14285714285714 L 315.7200460829493 122.66820276497695 316.72695852534565 122.93087557603685 316.1578341013825 123.7626728110599 314.9758064516129 122.14285714285714 M 320.0541474654378 120.5668202764977 L 320.7546082949309 120.69815668202764 321.58640552995394 120.87327188940091 321.0610599078341 121.66129032258064 320.0541474654378 120.5668202764977 M 323.6440092165899 114.30645161290322 L 323.7753456221198 114.83179723502303 323.46889400921657 115.09447004608295 323.03110599078343 114.61290322580645 323.6440092165899 114.30645161290322 M 331.8306451612903 95.7442396313364 L 330.823732718894 97.27649769585253 330.2546082949309 96.48847926267281 330.64861751152074 95.83179723502303 331.8306451612903 95.7442396313364 M 301.3168202764977 48.41935483870967 L 303.2430875576037 48.06912442396313 302.93663594470047 46.23041474654378 304.03110599078343 44.61059907834101 305.6947004608295 44.698156682027644 309.9850230414746 49.907834101382484 310.5103686635945 51.30875576036866 313.35599078341016 51.13364055299539 314.36290322580646 51.877880184331794 316.6831797235023 50.126728110599075 317.33986175115206 48.63824884792626 321.19239631336404 49.86405529953917 322.37442396313367 51.00230414746544 323.38133640552996 49.776497695852534 323.2937788018433 47.456221198156676 325.2200460829493 46.055299539170505 325.5264976958525 44.26036866359447 324.6947004608295 41.983870967741936 324.6071428571429 35.15437788018433 326.0518433179723 31.783410138248847 328.76612903225805 31.345622119815665 331.7430875576037 28.28110599078341 334.89516129032256 31.170506912442395 338.5725806451613 31.958525345622117 340.2799539170507 34.41013824884792 338.9665898617512 38.17511520737327 340.0172811059908 40.495391705069125 338.17857142857144 42.72811059907834 339.9735023041475 43.1221198156682 339.4043778801843 47.28110599078341 341.5057603686636 51.35253456221198 344.9205069124424 52.096774193548384 347.5034562211982 54.89861751152073 349.69239631336404 56.168202764976954 349.91129032258067 58.53225806451613 348.72926267281105 61.728110599078335 347.72235023041475 66.14976958525345 348.20391705069125 68.11981566820276 351.57488479262673 71.88479262672811 354.81451612903226 76.17511520737327 357.4412442396313 81.51612903225806 355.5149769585253 82.43548387096774 357.70391705069125 87.55760368663594 357.1347926267281 90.57834101382488 358.8421658986175 92.72350230414746 360.37442396313367 92.46082949308756 361.51267281105993 94.036866359447 360.59331797235023 95.13133640552995 361.60023041474653 97.32027649769584 365.0587557603687 98.6774193548387 365.6278801843318 101.5668202764977 363.6578341013825 105.50691244239631 367.4665898617512 108.1774193548387 372.5011520737327 110.23502304147465 375.5218894009217 113.21198156682027 375.21543778801845 118.68433179723502 372.89516129032256 123.67511520737327 370.04953917050693 132.34331797235023 367.8168202764977 137.55299539170505 365.8905529953917 140.04838709677418 361.6877880184332 148.32258064516128 359.8052995391705 149.98617511520737 357.7914746543779 149.110599078341 356.9596774193548 150.3364055299539 353.10714285714283 152.61290322580643 351.0057603686636 152.08755760368663 351.09331797235023 154.889400921659 346.5841013824885 155.8963133640553 346.5841013824885 156.68433179723502 343.1255760368664 158.1290322580645 337.3905529953917 161.5 335.4205069124424 163.38248847926266 334.9827188940092 160.88709677419354 333.31912442396316 160.88709677419354 332.04953917050693 158.04147465437788 330.0357142857143 159.66129032258064 330.2983870967742 157.3847926267281 328.19700460829495 157.64746543778801 325.30760368663596 156.24654377880182 323.95046082949307 156.90322580645162 322.0241935483871 155.28341013824885 321.8052995391705 152 320.66705069124424 150.16129032258064 321.9804147465438 148.05990783410138 320.92972350230417 142.5 318.4781105990783 138.51612903225805 318.30299539170505 133.7442396313364 317.0334101382488 133.30645161290323 316.1578341013825 129.8917050691244 316.639400921659 127.48387096774194 318.9596774193548 124.90092165898616 317.5149769585253 122.7995391705069 319.66013824884794 121.74884792626727 319.9228110599078 122.84331797235022 322.286866359447 120.52304147465438 320.92972350230417 118.94700460829492 322.1993087557604 118.33410138248847 322.63709677419354 115.44470046082948 324.1255760368664 115.92626728110598 324.6509216589862 113.64976958525345 326.5771889400922 112.16129032258064 326.27073732718895 110.27880184331796 328.897465437788 107.17050691244239 328.8536866359447 105.41935483870967 330.3859447004608 103.14285714285714 330.42972350230417 101.21658986175115 331.8306451612903 98.41474654377879 333.31912442396316 97.45161290322581 334.58870967741933 98.45852534562212 335.1578341013825 96.35714285714285 333.4942396313364 94.64976958525345 333.2753456221198 89.92165898617512 331.5241935483871 88.6958525345622 329.3790322580645 88.78341013824884 328.15322580645164 86.68202764976958 326.0956221198157 86.90092165898616 324.78225806451616 84.18663594470046 322.85599078341016 82.43548387096774 321.89285714285717 79.58986175115207 322.8122119815668 77.7073732718894 322.7684331797235 74.42396313364056 319.7914746543779 70.44009216589862 320.0541474654378 66.85023041474653 318.25921658986175 66.32488479262672 318.6094470046083 64.88018433179724 317.602534562212 61.115207373271886 318.25921658986175 60.327188940092164 315.32603686635946 58.2258064516129 313.04953917050693 55.117511520737324 309.3283410138249 54.635944700460826 306.0011520737327 52.40322580645161 302.8928571428571 49.11981566820276 301.3168202764977 48.41935483870967 Z" vector-effect="non-scaling-stroke" stroke="silver" stroke-width="1" class=" highcharts-name-finland highcharts-key-fi"></path><path fill="#7cb5ec" d="M 260.2085253456221 232.94700460829492 L 262.70391705069125 234.69815668202764 263.62327188940094 233.91013824884791 264.01728110599083 236.75576036866357 261.8721198156682 237.0622119815668 258.36981566820276 235.0921658986175 260.2085253456221 232.94700460829492 M 253.64170506912444 233.73502304147465 L 254.86751152073734 234.30414746543778 253.860599078341 234.56682027649768 252.6347926267281 233.20967741935482 253.64170506912444 233.73502304147465 M 269.4896313364055 232.1152073732719 L 267.25691244239636 233.55990783410138 266.55645161290323 232.81566820276495 268.0011520737327 231.76497695852532 269.4896313364055 232.1152073732719 M 249.57027649769586 231.4147465437788 L 251.27764976958525 232.94700460829492 250.83986175115209 234.21658986175115 249.74539170506912 233.69124423963132 249.57027649769586 231.4147465437788 M 257.1440092165899 233.20967741935482 L 256.39976958525347 235.70506912442394 255.7430875576037 234.43548387096774 257.9758064516129 230.4516129032258 257.1440092165899 233.20967741935482 M 286.3006912442396 228.3064516129032 L 288.31451612903226 229.4447004608295 287.83294930875576 231.28341013824883 284.94354838709677 230.05760368663593 285.3375576036866 227.43087557603687 286.3006912442396 228.3064516129032 M 239.676267281106 226.77419354838707 L 240.02649769585256 226.94930875576037 239.93894009216592 228.0437788018433 239.36981566820276 226.94930875576037 239.676267281106 226.77419354838707 M 253.51036866359448 224.76036866359445 L 256.79377880184336 227.91244239631337 256.39976958525347 231.50230414746542 252.54723502304148 231.28341013824883 250.22695852534562 229.2695852534562 248.73847926267283 226.20506912442394 253.51036866359448 224.76036866359445 M 269.5334101382489 225.1543778801843 L 269.0956221198157 224.32258064516128 269.66474654377885 223.27188940092165 270.1900921658986 224.45391705069125 269.5334101382489 225.1543778801843 M 255.4804147465438 221.34562211981566 L 255.5241935483871 222.3963133640553 254.7799539170507 222.48387096774192 255.21774193548387 221.12672811059906 255.4804147465438 221.34562211981566 M 243.5725806451613 207.68663594470044 L 243.30990783410138 209.61290322580643 241.69009216589862 211.14516129032256 240.98963133640555 209.7442396313364 243.5725806451613 207.68663594470044 M 259.2453917050691 203.00230414746542 L 258.36981566820276 203.44009216589862 258.1509216589862 204.57834101382488 256.92511520737327 203.79032258064515 259.2453917050691 203.00230414746542 M 242.52188940092168 233.55990783410138 L 241.33986175115209 233.69124423963132 241.16474654377882 226.8179723502304 237.4435483870968 225.1543778801843 238.2315668202765 222.04608294930875 239.6324884792627 221.03917050691243 237.7062211981567 218.14976958525344 237.9688940092166 212.6774193548387 241.07718894009219 212.4147465437788 243.8352534562212 209.61290322580643 246.0241935483871 211.80184331797233 245.2799539170507 208.5184331797235 247.2062211981567 206.8548387096774 248.4320276497696 207.51152073732717 249.6140552995392 205.8917050691244 246.0241935483871 207.1175115207373 244.97350230414747 206.41705069124424 241.95276497695855 207.68663594470044 240.55184331797236 209.83179723502303 240.9020737327189 212.23963133640552 238.88824884792626 209.87557603686636 241.55875576036868 205.54147465437788 247.03110599078343 205.10368663594468 250.83986175115209 199.71889400921657 255.13018433179724 197.66129032258064 253.99193548387098 199.9815668202765 254.7799539170507 204.18433179723502 252.89746543778801 208.3433179723502 253.5979262672811 212.72119815668202 256.57488479262673 213.02764976958525 257.84447004608296 214.12211981566819 254.823732718894 218.5437788018433 253.90437788018434 216.04838709677418 252.6347926267281 217.97465437788017 252.80990783410138 220.9078341013825 250.31451612903226 221.9147465437788 251.49654377880185 223.00921658986175 247.4688940092166 226.24884792626727 249.00115207373273 229.31336405529953 247.42511520737327 230.40783410138246 249.176267281106 232.68433179723502 246.9873271889401 234.82949308755758 246.9873271889401 234.82949308755758 242.52188940092168 233.55990783410138 M 262.8790322580645 220.86405529953916 L 263.9735023041475 223.70967741935482 265.41820276497697 220.38248847926266 264.2799539170507 219.9884792626728 266.90668202764977 217.97465437788017 269.6209677419355 218.93778801843317 268.87672811059906 220.51382488479263 269.6209677419355 223.18433179723502 267.1693548387097 225.32949308755758 268.6578341013825 227.73732718894007 266.8191244239631 229.35714285714283 265.98732718894007 232.59677419354838 266.86290322580646 234.26036866359445 265.41820276497697 236.14285714285714 263.7983870967742 233.91013824884791 264.7615207373272 232.59677419354838 263.0103686635945 230.05760368663593 260.16474654377885 229.83870967741933 258.89516129032256 227.7811059907834 259.28917050691246 225.3732718894009 257.93202764976957 223.27188940092165 259.9896313364055 223.18433179723502 262.8790322580645 220.86405529953916 Z" vector-effect="non-scaling-stroke" stroke="silver" stroke-width="1" class=" highcharts-name-denmark highcharts-key-dk"></path></g></g><g class="highcharts-markers" visibility="visible"  transform="translate(10,10) scale(1 1)" clip-path="none"></g><g class="highcharts-series" visibility="visible"  transform="translate(10,10) scale(1 1)" clip-path="url(#highcharts-5)"><g transform="translate(0,0) scale(1 1)"><path fill="#434348" d="M 219.62557603686636 293.1428571428571 L 218.66244239631337 292.39861751152074 216.16705069124424 295.9447004608295 217.39285714285717 299.05299539170505 216.5172811059908 300.3225806451613 213.93433179723505 300.7165898617511 209.86290322580646 296.60138248847926 208.7246543778802 294.2811059907834 209.55645161290323 292.2672811059908 205.79147465437788 294.5875576036866 203.47119815668205 293.88709677419354 204.25921658986175 290.4285714285714 202.90207373271892 289.2465437788018 199.9688940092166 289.2027649769585 199.9688940092166 287.62672811059906 197.0794930875576 286.31336405529953 196.3352534562212 283.20506912442397 193.44585253456222 283.46774193548384 192.04493087557606 281.8479262672811 191.82603686635946 278.6958525345622 196.86059907834104 276.15668202764977 198.65552995391707 275.71889400921657 198.87442396313367 277.38248847926263 200.84447004608296 277.0322580645161 203.03341013824885 278.258064516129 205.52880184331798 276.41935483870964 206.18548387096774 277.64516129032256 205.8352534562212 276.41935483870964 207.67396313364057 275.23732718894007 211.83294930875576 275.5437788018433 213.27764976958525 278.389400921659 215.29147465437788 278.12672811059906 218.04953917050693 279.9654377880184 216.60483870967744 284.86866359447004 219.05645161290323 285.13133640552996 221.5956221198157 288.6774193548387 221.81451612903226 290.778801843318 219.62557603686636 293.1428571428571 Z" vector-effect="non-scaling-stroke" stroke="silver" stroke-width="1" class=" highcharts-name-belgium highcharts-key-be"></path><path fill="#434348" d="M 151.7684331797235 338.2350230414746 L 152.55645161290323 339.6797235023041 152.07488479262673 340.68663594470047 150.93663594470047 338.4101382488479 151.7684331797235 338.2350230414746 M 150.67396313364057 334.86405529953913 L 151.9873271889401 335.65207373271886 152.38133640552996 336.2649769585253 149.92972350230417 334.7327188940092 150.67396313364057 334.86405529953913 M 145.98963133640552 324.7511520737327 L 145.46428571428572 324.83870967741933 145.20161290322582 323.91935483870964 145.98963133640552 324.13824884792626 145.98963133640552 324.7511520737327 M 138.89746543778801 318.9285714285714 L 139.24769585253458 319.3663594470046 137.80299539170508 318.8847926267281 137.93433179723502 317.9216589861751 138.89746543778801 318.9285714285714 M 217.91820276497697 341.47465437788014 L 218.61866359447006 340.51152073732715 222.95276497695855 340.20506912442397 223.34677419354838 343.926267281106 224.74769585253458 346.4654377880184 222.73387096774195 347.647465437788 225.14170506912444 354.9585253456221 220.54493087557606 356.7096774193548 224.39746543778801 362.22580645161287 222.42741935483872 363.889400921659 222.51497695852535 366.12211981566816 227.06797235023043 369.44930875576034 229.9135944700461 370.0622119815668 228.03110599078343 373.6958525345622 227.7684331797235 374.04608294930875 227.41820276497697 374.3087557603686 227.15552995391707 374.04608294930875 226.7615207373272 374.57142857142856 224.5725806451613 376.6290322580645 220.72004608294932 378.3364055299539 220.10714285714286 380.91935483870964 212.31451612903226 382.5391705069124 210.34447004608296 380.5691244239631 207.71774193548387 380.0437788018433 206.27304147465438 377.241935483871 202.94585253456222 378.073732718894 200.1877880184332 376.45391705069125 194.93433179723505 375.05299539170505 186.8352534562212 379.7811059907834 185.56566820276498 386.741935483871 186.6163594470046 388.40552995391704 184.33986175115209 387.70506912442397 179.7430875576037 388.88709677419354 178.12327188940094 387.573732718894 175.89055299539172 388.3179723502304 172.86981566820276 386.04147465437785 173.1324884792627 384.684331797235 170.37442396313367 384.55299539170505 169.5426267281106 382.9331797235023 163.54493087557603 380.5691244239631 163.1947004608295 382.4953917050691 156.80299539170508 381.61981566820276 154.43894009216592 379.2557603686636 151.94354838709677 379.5184331797235 150.58640552995394 377.3732718894009 144.1071428571429 374.61520737327186 145.20161290322582 372.68894009216586 141.91820276497697 370.32488479262673 145.20161290322582 368.3548387096774 150.01728110599078 355.13364055299536 149.2730414746544 355.4838709677419 152.07488479262673 344.84562211981563 152.6877880184332 343.926267281106 155.05184331797238 347.4285714285714 155.3582949308756 346.2027649769585 151.9873271889401 342 153.4320276497696 339.7235023041475 153.82603686635946 335.258064516129 148.3099078341014 331.2304147465438 146.25230414746545 326.8087557603686 147.8283410138249 324.09447004608296 143.75691244239633 319.147465437788 144.54493087557606 317.4400921658986 141.786866359447 317.3087557603686 142.44354838709677 315.7764976958525 139.8168202764977 315.9516129032258 136.48963133640552 312.71198156682027 133.33755760368666 310.741935483871 129.48502304147468 311.00460829493085 129.39746543778801 308.815668202765 127.55875576036868 307.2396313364055 130.92972350230417 307.4147465437788 127.90898617511522 301.8548387096774 129.96658986175117 300.49769585253455 135.0887096774194 300.1912442396313 138.28456221198158 301.3732718894009 139.11635944700464 299.57834101382485 142.61866359447006 299.8410138248848 145.20161290322582 304.963133640553 148.61635944700464 303.2995391705069 149.22926267281107 304.74423963133637 152.55645161290323 303.6059907834101 152.42511520737327 304.74423963133637 156.32142857142858 304.87557603686633 155.00806451612902 303.5622119815668 155.57718894009219 297.56451612903226 154.176267281106 295.11290322580646 153.9135944700461 290.9101382488479 156.49654377880185 292.2235023041475 158.24769585253458 291.741935483871 159.38594470046084 295.5506912442396 166.95967741935485 298.61520737327186 172.4320276497696 297.17050691244236 169.98041474654377 296.29493087557603 171.4688940092166 293.49308755760364 175.27764976958525 292.1359447004608 179.43663594470047 291.610599078341 182.85138248847926 287.9769585253456 184.03341013824885 280.6221198156682 187.36059907834104 279.221198156682 191.82603686635946 278.6958525345622 191.78225806451613 278.6958525345622 192.04493087557606 281.8479262672811 193.44585253456222 283.46774193548384 196.3352534562212 283.20506912442397 197.0794930875576 286.31336405529953 199.9688940092166 287.62672811059906 199.9688940092166 289.2027649769585 202.90207373271892 289.2465437788018 204.25921658986175 290.4285714285714 203.47119815668205 293.88709677419354 205.79147465437788 294.5875576036866 209.55645161290323 292.2672811059908 208.7246543778802 294.2811059907834 209.86290322580646 296.60138248847926 213.93433179723505 300.7165898617511 216.5172811059908 300.3225806451613 217.87442396313364 301.6359447004608 221.02649769585256 301.5921658986175 222.25230414746545 301.94239631336404 223.78456221198158 305.31336405529953 236.13018433179724 308.4654377880184 232.75921658986175 312.71198156682027 230.52649769585256 319.1912442396313 230.43894009216592 325.67050691244236 228.60023041474656 327.55299539170505 225.44815668202767 326.54608294930875 225.66705069124424 328.55990783410135 221.639400921659 332.89400921658984 220.01958525345623 335.65207373271886 217.3052995391705 337.6221198156682 217.91820276497697 341.47465437788014 M 175.14631336405532 387.04838709677415 L 175.49654377880185 387.0921658986175 175.27764976958525 386.52304147465435 175.05875576036868 386.7857142857143 175.14631336405532 387.04838709677415 M 237.31221198156683 393.7465437788018 L 238.97580645161293 389.71889400921657 242.65322580645162 387.6612903225806 244.40437788018434 388.3179723502304 244.92972350230414 384.2903225806451 245.93663594470047 388.71198156682027 246.81221198156683 395.54147465437785 245.36751152073734 397.5552995391705 245.323732718894 400.70737327188937 243.5725806451613 404.99769585253455 239.45737327188942 402.5023041474654 240.72695852534562 400.83870967741933 238.58179723502306 400.35714285714283 239.10714285714286 396.3294930875576 237.31221198156683 393.7465437788018 Z" vector-effect="non-scaling-stroke" stroke="silver" stroke-width="1" class=" highcharts-name-france highcharts-key-fr"></path></g></g><g class="highcharts-markers" visibility="visible"  transform="translate(10,10) scale(1 1)" clip-path="none"></g><g class="highcharts-series" visibility="visible"  transform="translate(10,10) scale(1 1)" clip-path="url(#highcharts-5)"><g transform="translate(0,0) scale(1 1)"><path fill="#90ed7d" d="M 242.91589861751152 239.11981566820276 L 242.34677419354838 238.68202764976957 242.6094470046083 238.463133640553 243.48502304147468 238.41935483870967 242.91589861751152 239.11981566820276 M 260.29608294930875 238.9447004608295 L 260.73387096774195 239.77649769585253 258.4573732718894 239.11981566820276 259.28917050691246 238.2442396313364 260.29608294930875 238.9447004608295 M 275.88133640552996 236.27419354838707 L 277.72004608294935 237.0184331797235 277.32603686635946 238.463133640553 278.81451612903226 239.99539170506912 275.1808755760369 241.30875576036865 274.3052995391705 237.63133640552994 275.88133640552996 236.27419354838707 M 240.639400921659 236.23041474654377 L 239.36981566820276 235.92396313364054 239.85138248847926 235.44239631336404 240.50806451612905 235.44239631336404 240.639400921659 236.23041474654377 M 239.36981566820276 233.64746543778801 L 238.62557603686636 233.69124423963132 239.28225806451613 231.8963133640553 239.10714285714286 232.72811059907832 239.36981566820276 233.64746543778801 M 244.14170506912444 324.926267281106 L 244.22926267281107 325.0576036866359 244.22926267281107 325.0576036866359 244.14170506912444 324.926267281106 M 248.6509216589862 326.4585253456221 L 243.17857142857144 323 244.0979262672811 324.88248847926263 241.73387096774195 325.10138248847926 239.1509216589862 323.21889400921657 237.79377880184333 325.84562211981563 230.43894009216592 325.67050691244236 230.52649769585256 319.1912442396313 232.75921658986175 312.71198156682027 236.13018433179724 308.4654377880184 223.78456221198158 305.31336405529953 222.25230414746545 301.94239631336404 221.02649769585256 301.5921658986175 222.51497695852535 297.389400921659 220.28225806451613 296.11981566820276 219.62557603686636 293.1428571428571 221.81451612903226 290.778801843318 221.5956221198157 288.6774193548387 219.05645161290323 285.13133640552996 218.66244239631337 281.5852534562212 220.54493087557606 280.1405529953917 221.1578341013825 277.20737327188937 219.27534562211983 271.8225806451613 220.8951612903226 270.7718894009216 222.82142857142858 271.7350230414746 226.23617511520737 270.2465437788018 225.22926267281107 269.2396313364055 228.07488479262673 266.91935483870964 227.7684331797235 264.1175115207373 225.66705069124424 263.7235023041475 226.323732718894 261.6658986175115 228.38133640552996 261.6658986175115 229.6509216589862 257.68202764976957 229.86981566820276 254.17972350230414 228.64400921658986 252.47235023041475 230.30760368663596 248.88248847926266 235.7799539170507 248.35714285714283 237.31221198156683 250.54608294930875 240.28917050691246 250.6774193548387 240.46428571428572 246.7811059907834 243.70391705069125 246.38709677419354 242.43433179723502 244.54838709677418 242.52188940092168 241.79032258064515 240.98963133640555 240.08294930875576 243.8352534562212 238.63824884792626 241.51497695852535 235.70506912442394 241.33986175115209 233.69124423963132 242.52188940092168 233.55990783410138 246.9873271889401 234.82949308755758 246.9873271889401 234.82949308755758 248.03801843317973 234.1290322580645 251.32142857142858 236.5806451612903 251.23387096774195 238.20046082949307 256.79377880184336 241.04608294930875 259.0264976958525 240.6958525345622 258.9827188940092 242.70967741935482 256.6624423963134 244.50460829493088 257.6693548387097 245.46774193548387 262.17857142857144 244.94239631336404 263.88594470046087 242.92857142857142 266.6440092165899 242.66589861751152 269.4458525345622 238.7695852534562 274.0426267281106 241.04608294930875 276.75691244239636 243.19124423963132 278.4642857142857 242.44700460829492 279.5149769585254 245.8617511520737 279.9965437788019 246.12442396313364 280.3467741935484 243.41013824884791 282.40437788018437 244.94239631336404 282.14170506912444 245.3364055299539 282.360599078341 245.68663594470044 280.12788018433184 246.21198156682027 282.9735023041475 247.91935483870967 284.3744239631336 253.21658986175115 284.06797235023043 256.0622119815668 282.53571428571433 258.64516129032256 286.73847926267285 261.8410138248848 286.03801843317973 263.8548387096774 288.0518433179724 268.10138248847926 286.86981566820276 271.6036866359447 288.27073732718895 275.14976958525347 290.0218894009217 275.89400921658984 290.8099078341014 278.52073732718895 289.4527649769585 283.38018433179724 287.87672811059906 283.6428571428571 286.7822580645161 281.5852534562212 285.7315668202765 283.3364055299539 279.9089861751152 285.78801843317973 278.7269585253456 287.32027649769583 271.3283410138249 290.2534562211981 269.31451612903226 294.63133640552996 271.6347926267281 296.33870967741933 270.5841013824885 298.4400921658986 274.13018433179724 303.5184331797235 275.8375576036866 303.86866359447004 280.0403225806452 308.2027649769585 282.9297235023041 310.2165898617511 282.22926267281105 313.36866359447004 280.565668202765 312.6244239631336 279.73387096774195 315.29493087557603 274.3052995391705 318.7972350230415 276.53801843317973 322.16820276497697 277.1071428571429 326.63364055299536 274.65552995391704 324.5322580645161 272.4228110599079 325.0576036866359 269.66474654377885 324.18202764976957 269.5771889400922 325.4953917050691 264.93663594470047 325.8018433179723 261.8721198156682 328.2534562211981 259.508064516129 328.3847926267281 257.84447004608296 326.852534562212 254.60483870967744 326.15207373271886 253.72926267281107 329.56682027649765 250.6209677419355 326.7649769585253 248.6509216589862 326.4585253456221 Z" vector-effect="non-scaling-stroke" stroke="silver" stroke-width="1" class=" highcharts-name-germany highcharts-key-de"></path><path fill="#90ed7d" d="M 247.4688940092166 332.67511520737327 L 247.77534562211983 332.0622119815668 246.94354838709677 330.04838709677415 248.08179723502306 328.2096774193548 247.25 326.9400921658986 248.25691244239633 327.07142857142856 248.6509216589862 326.4585253456221 250.6209677419355 326.7649769585253 253.72926267281107 329.56682027649765 254.60483870967744 326.15207373271886 257.84447004608296 326.852534562212 259.508064516129 328.3847926267281 261.8721198156682 328.2534562211981 264.93663594470047 325.8018433179723 269.5771889400922 325.4953917050691 269.66474654377885 324.18202764976957 272.4228110599079 325.0576036866359 274.65552995391704 324.5322580645161 277.1071428571429 326.63364055299536 276.53801843317973 322.16820276497697 274.3052995391705 318.7972350230415 279.73387096774195 315.29493087557603 280.565668202765 312.6244239631336 282.22926267281105 313.36866359447004 282.9297235023041 310.2165898617511 285.2062211981567 312.3179723502304 288.35829493087556 311.48617511520735 290.4158986175115 312.01152073732715 292.12327188940094 309.7350230414746 292.4297235023041 306.58294930875576 294.79377880184336 306.758064516129 301.40437788018437 309.07834101382485 304.6877880184332 308.3341013824885 308.4089861751152 308.9470046082949 309.1532258064516 310.3041474654378 308.62788018433184 313.41244239631334 311.60483870967744 317.6589861751152 310.5541474654378 319.5852534562212 311.3421658986175 321.46774193548384 307.35829493087556 321.3364055299539 307.971198156682 325.0576036866359 306.22004608294935 326.5023041474654 307.18317972350235 330.88018433179724 303.94354838709677 332.89400921658984 303.41820276497697 335.08294930875576 300.09101382488484 335.0391705069124 298.6900921658986 336.4838709677419 293.3928571428571 337.00921658986175 290.8536866359447 340.02995391705065 289.62788018433184 339.3294930875576 283.4112903225806 338.6290322580645 279.29608294930875 338.45391705069125 272.028801843318 336.9654377880184 269.35829493087556 333.20046082949307 262.4412442396314 333.463133640553 259.77073732718895 336.2649769585253 254.9988479262673 335.08294930875576 254.25460829493088 333.463133640553 252.06566820276498 335.34562211981563 249.83294930875576 333.20046082949307 247.4688940092166 332.67511520737327 Z" vector-effect="non-scaling-stroke" stroke="silver" stroke-width="1" class=" highcharts-name-austria highcharts-key-at"></path><path fill="#90ed7d" d="M 230.43894009216592 325.67050691244236 L 237.79377880184333 325.84562211981563 239.1509216589862 323.21889400921657 241.73387096774195 325.10138248847926 244.0979262672811 324.88248847926263 244.14170506912444 324.926267281106 244.22926267281107 325.0576036866359 244.22926267281107 325.0576036866359 246.7246543778802 327.2027649769585 247.25 326.9400921658986 248.08179723502306 328.2096774193548 246.94354838709677 330.04838709677415 246.54953917050693 332.5875576036866 247.4688940092166 332.67511520737327 249.83294930875576 333.20046082949307 252.06566820276498 335.34562211981563 254.25460829493088 333.463133640553 254.9988479262673 335.08294930875576 254.7799539170507 339.2857142857143 251.84677419354838 338.4101382488479 250.75230414746545 341.5622119815668 247.2062211981567 342.35023041474653 246.15552995391707 339.8110599078341 241.33986175115209 348.1728110599078 240.81451612903226 345.15207373271886 237.2684331797235 342.74423963133637 237.4435483870968 340.42396313364054 234.16013824884794 342.61290322580646 234.42281105990784 344.2327188940092 231.8836405529954 346.8594470046083 229.34447004608296 345.8963133640553 226.14861751152074 347.07834101382485 224.74769585253458 346.4654377880184 223.34677419354838 343.926267281106 222.95276497695855 340.20506912442397 221.55184331797236 338.8041474654378 218.83755760368663 339.50460829493085 217.91820276497697 341.47465437788014 217.3052995391705 337.6221198156682 220.01958525345623 335.65207373271886 221.639400921659 332.89400921658984 225.66705069124424 328.55990783410135 225.44815668202767 326.54608294930875 228.60023041474656 327.55299539170505 230.43894009216592 325.67050691244236 230.43894009216592 325.67050691244236 Z" vector-effect="non-scaling-stroke" stroke="silver" stroke-width="1" class=" highcharts-name-switzerland highcharts-key-ch"></path></g></g><g class="highcharts-markers" visibility="visible"  transform="translate(10,10) scale(1 1)" clip-path="none"></g><g class="highcharts-series" visibility="visible"  transform="translate(10,10) scale(1 1)" clip-path="url(#highcharts-5)"><g transform="translate(0,0) scale(1 1)"><path fill="#f7a35c" d="M 321.58640552995394 234.6543778801843 L 318.9158986175115 236.44930875576037 320.18548387096774 237.0622119815668 322.59331797235023 234.74193548387095 344.176267281106 232.50921658986175 344.6578341013825 232.24654377880182 345.22695852534565 231.58986175115206 349.91129032258067 233.69124423963132 350.8306451612903 236.44930875576037 352.36290322580646 240.38940092165896 355.73387096774195 245.5990783410138 356.69700460829495 251.59677419354838 353.5011520737327 254.31105990783408 352.2753456221198 257.33179723502303 356.3467741935484 259.2142857142857 357.4412442396313 266.2626728110599 358.0979262672811 268.4516129032258 363.176267281106 273.88018433179724 361.95046082949307 274.2741935483871 363.74539170506915 277.60138248847926 361.25 280.00921658986175 357.1347926267281 286.35714285714283 354.37672811059906 292.3548387096774 355.69009216589865 296.7327188940092 357.3099078341014 298.6589861751152 354.5518433179723 298.1774193548387 349.95506912442397 297.17050691244236 348.028801843318 295.37557603686633 343.34447004608296 295.20046082949307 341.06797235023043 297.5207373271889 338.7914746543779 296.5138248847926 335.72695852534565 297.17050691244236 333.9758064516129 300.147465437788 331.43663594470047 300.05990783410135 328.28456221198155 295.463133640553 326.4020737327189 298.221198156682 323.46889400921657 297.2142857142857 320.66705069124424 292.5299539170507 316.28917050691246 291.741935483871 314.713133640553 292.3548387096774 308.8467741935484 287.8018433179723 306.30760368663596 287.53917050691246 307.31451612903226 289.8594470046083 305.38824884792626 291.7857142857143 300.8790322580645 288.02073732718895 301.7983870967742 285.13133640552996 299.8283410138249 285.2626728110599 294.53110599078343 283.7741935483871 292.9988479262673 281.93548387096774 290.5034562211981 281.6290322580645 289.4527649769585 283.38018433179724 290.8099078341014 278.52073732718895 290.0218894009217 275.89400921658984 288.27073732718895 275.14976958525347 286.86981566820276 271.6036866359447 288.0518433179724 268.10138248847926 286.03801843317973 263.8548387096774 286.73847926267285 261.8410138248848 282.53571428571433 258.64516129032256 284.06797235023043 256.0622119815668 284.3744239631336 253.21658986175115 282.9735023041475 247.91935483870967 284.8559907834101 248.2258064516129 285.60023041474653 245.8179723502304 282.360599078341 245.68663594470044 282.14170506912444 245.3364055299539 282.40437788018437 244.94239631336404 296.32603686635946 239.4700460829493 299.1716589861751 235.8364055299539 304.55645161290323 232.9032258064516 311.5172811059908 230.97695852534562 314.10023041474653 235.8364055299539 317.25230414746545 236.5806451612903 321.4988479262673 234.610599078341 321.58640552995394 234.6543778801843 Z" vector-effect="non-scaling-stroke" stroke="silver" stroke-width="1" class=" highcharts-name-poland highcharts-key-pl"></path><path fill="#f7a35c" d="M 341.06797235023043 338.278801843318 L 334.9389400921659 338.4101382488479 332.7062211981567 341.036866359447 329.64170506912444 342.0875576036866 327.67165898617515 342.5691244239631 325.6140552995392 344.9769585253456 320.7983870967742 345.10829493087556 318.0841013824885 343.31336405529953 315.9389400921659 343.31336405529953 311.21082949308754 338.6290322580645 307.971198156682 337.1405529953917 305.4758064516129 332.7626728110599 303.94354838709677 332.89400921658984 307.18317972350235 330.88018433179724 306.22004608294935 326.5023041474654 307.971198156682 325.0576036866359 307.35829493087556 321.3364055299539 311.3421658986175 321.46774193548384 310.5541474654378 319.5852534562212 311.60483870967744 317.6589861751152 313.2246543778802 317.61520737327186 317.69009216589865 320.2857142857143 325.9205069124424 318.2718894009216 325.78917050691246 315.64516129032256 331.08640552995394 314.0691244239631 332.09331797235023 312.44930875576034 334.41359447004606 313.36866359447004 337.8283410138249 310.96082949308754 338.70391705069125 307.721198156682 341.15552995391704 306.8018433179723 344.0011520737327 307.3709677419355 346.4527649769585 306.05760368663596 349.42972350230417 308.4216589861751 352.6693548387097 307.06451612903226 357.17857142857144 310.1728110599078 359.8490783410138 311.6612903225806 359.0172811059908 313.36866359447004 355.20852534562215 315.426267281106 353.36981566820276 318.6221198156682 350.8306451612903 328.9101382488479 349.42972350230417 330.48617511520735 348.5103686635945 334.9953917050691 345.971198156682 335.4769585253456 344.2200460829493 337.53456221198155 341.06797235023043 338.278801843318 Z" vector-effect="non-scaling-stroke" stroke="silver" stroke-width="1" class=" highcharts-name-hungary highcharts-key-hu"></path><path fill="#f7a35c" d="M 311.60483870967744 317.6589861751152 L 308.62788018433184 313.41244239631334 309.1532258064516 310.3041474654378 310.68548387096774 306.9331797235023 313.7937788018433 307.1958525345622 317.9527649769585 303.7811059907834 318.565668202765 300.7603686635945 321.10483870967744 297.8709677419355 323.46889400921657 297.2142857142857 326.4020737327189 298.221198156682 328.28456221198155 295.463133640553 331.43663594470047 300.05990783410135 333.9758064516129 300.147465437788 335.72695852534565 297.17050691244236 338.7914746543779 296.5138248847926 341.06797235023043 297.5207373271889 343.34447004608296 295.20046082949307 348.028801843318 295.37557603686633 349.95506912442397 297.17050691244236 354.5518433179723 298.1774193548387 353.58870967741933 303.0806451612903 352.6693548387097 307.06451612903226 349.42972350230417 308.4216589861751 346.4527649769585 306.05760368663596 344.0011520737327 307.3709677419355 341.15552995391704 306.8018433179723 338.70391705069125 307.721198156682 337.8283410138249 310.96082949308754 334.41359447004606 313.36866359447004 332.09331797235023 312.44930875576034 331.08640552995394 314.0691244239631 325.78917050691246 315.64516129032256 325.9205069124424 318.2718894009216 317.69009216589865 320.2857142857143 313.2246543778802 317.61520737327186 311.60483870967744 317.6589861751152 Z" vector-effect="non-scaling-stroke" stroke="silver" stroke-width="1" class=" highcharts-name-slovakia highcharts-key-sk"></path><path fill="#f7a35c" d="M 323.46889400921657 297.2142857142857 L 321.10483870967744 297.8709677419355 318.565668202765 300.7603686635945 317.9527649769585 303.7811059907834 313.7937788018433 307.1958525345622 310.68548387096774 306.9331797235023 309.1532258064516 310.3041474654378 308.4089861751152 308.9470046082949 304.6877880184332 308.3341013824885 301.40437788018437 309.07834101382485 294.79377880184336 306.758064516129 292.4297235023041 306.58294930875576 292.12327188940094 309.7350230414746 290.4158986175115 312.01152073732715 288.35829493087556 311.48617511520735 285.2062211981567 312.3179723502304 282.9297235023041 310.2165898617511 280.0403225806452 308.2027649769585 275.8375576036866 303.86866359447004 274.13018433179724 303.5184331797235 270.5841013824885 298.4400921658986 271.6347926267281 296.33870967741933 269.31451612903226 294.63133640552996 271.3283410138249 290.2534562211981 278.7269585253456 287.32027649769583 279.9089861751152 285.78801843317973 285.7315668202765 283.3364055299539 286.7822580645161 281.5852534562212 287.87672811059906 283.6428571428571 289.4527649769585 283.38018433179724 290.5034562211981 281.6290322580645 292.9988479262673 281.93548387096774 294.53110599078343 283.7741935483871 299.8283410138249 285.2626728110599 301.7983870967742 285.13133640552996 300.8790322580645 288.02073732718895 305.38824884792626 291.7857142857143 307.31451612903226 289.8594470046083 306.30760368663596 287.53917050691246 308.8467741935484 287.8018433179723 314.713133640553 292.3548387096774 316.28917050691246 291.741935483871 320.66705069124424 292.5299539170507 323.46889400921657 297.2142857142857 Z" vector-effect="non-scaling-stroke" stroke="silver" stroke-width="1" class=" highcharts-name-czech-republic highcharts-key-cz"></path><path fill="#f7a35c" d="M 322.7684331797235 381.79493087557603 L 321.8052995391705 381.31336405529953 322.0241935483871 381.22580645161287 318.17165898617515 374.7465437788018 316.6831797235023 374.4400921658986 307.8836405529954 366.3847926267281 306.6578341013825 362.4884792626728 303.1993087557604 358.6359447004608 302.93663594470047 354.65207373271886 304.8191244239631 353.7327188940092 308.14631336405535 356.1405529953917 309.19700460829495 353.60138248847926 311.91129032258067 353.60138248847926 313.04953917050693 352.15668202764977 321.45506912442397 354.08294930875576 324.91359447004606 352.5069124423963 329.0725806451613 353.0322580645161 332.3122119815668 355.352534562212 335.4642857142857 354.6958525345622 333.88824884792626 359.5990783410138 334.7200460829493 362.4884792626728 339.14170506912444 365.11520737327186 335.72695852534565 366.55990783410135 338.17857142857144 368.7488479262673 338.66013824884794 371.28801843317973 336.0771889400922 371.9884792626728 333.4942396313364 372.86405529953913 331.786866359447 376.147465437788 331.7430875576037 379.0806451612903 330.0794930875576 379.6497695852534 331.5241935483871 384.02764976958525 330.5610599078341 385.1658986175115 324.78225806451616 382.4953917050691 322.7684331797235 381.79493087557603 Z" vector-effect="non-scaling-stroke" stroke="silver" stroke-width="1" class=" highcharts-name-bosnia-and herzegovina highcharts-key-ba"></path><path fill="#f7a35c" d="M 320.360599078341 383.2396313364055 L 323.7315668202765 383.9400921658986 323.95046082949307 384.2027649769585 320.4481566820277 383.58986175115206 320.360599078341 383.2396313364055 M 314.40668202764977 381.5760368663594 L 316.85829493087556 381.22580645161287 318.4781105990783 381.83870967741933 315.28225806451616 382.4078341013825 314.40668202764977 381.5760368663594 M 308.934331797235 380.78801843317973 L 309.1532258064516 381.2695852534562 308.32142857142856 381.61981566820276 307.5771889400922 381.0069124423963 308.934331797235 380.78801843317973 M 312.17396313364054 378.51152073732715 L 314.01267281105993 379.21198156682027 313.53110599078343 379.69354838709677 310.4665898617511 379.0806451612903 312.17396313364054 378.51152073732715 M 314.31912442396316 376.8479262672811 L 314.45046082949307 377.8110599078341 310.7730414746544 377.50460829493085 310.72926267281105 376.54147465437785 314.31912442396316 376.8479262672811 M 309.5472350230415 376.49769585253455 L 310.4665898617511 377.1543778801843 310.07258064516134 377.2857142857143 308.71543778801845 376.8041474654378 309.5472350230415 376.49769585253455 M 299.1716589861751 369.36175115207374 L 300.528801843318 370.0184331797235 301.18548387096774 371.0253456221198 300.3536866359447 370.67511520737327 299.1716589861751 369.36175115207374 M 295.6693548387097 368.1797235023041 L 299.0403225806452 370.85023041474653 298.33986175115206 371.0253456221198 296.9827188940092 369.18663594470047 295.6693548387097 368.1797235023041 M 295.05645161290323 362.35714285714283 L 295.58179723502303 362.18202764976957 298.9965437788019 365.3778801843318 295.6255760368664 363.7142857142857 295.05645161290323 362.35714285714283 M 291.1163594470046 362.5760368663594 L 291.07258064516134 362.88248847926263 290.3283410138249 361.17511520737327 290.9412442396314 361.5253456221198 291.1163594470046 362.5760368663594 M 294.0057603686636 359.2926267281106 L 294.7062211981567 360.21198156682027 295.01267281105993 361.0437788018433 293.3928571428571 359.3364055299539 294.0057603686636 359.2926267281106 M 291.3790322580645 358.06682027649765 L 291.20391705069125 361.87557603686633 289.4965437788019 355.9654377880184 290.24078341013825 355.57142857142856 291.3790322580645 358.06682027649765 M 291.991935483871 354.3018433179723 L 292.9988479262673 356.2718894009216 294.44354838709677 357.58525345622115 290.8536866359447 356.4032258064516 291.991935483871 354.3018433179723 M 331.3490783410138 386.91705069124424 L 324.30069124423966 382.62672811059906 320.7983870967742 382.2327188940092 318.74078341013825 380.5253456221198 322.7684331797235 381.79493087557603 324.78225806451616 382.4953917050691 330.5610599078341 385.1658986175115 330.7799539170507 386.1728110599078 331.3490783410138 386.91705069124424 M 322.0241935483871 381.22580645161287 L 314.93202764976957 375.97235023041475 311.60483870967744 375.14055299539166 306.4389400921659 375.49078341013825 305.86981566820276 373.34562211981563 301.3168202764977 370.5437788018433 297.77073732718895 366.4285714285714 299.4781105990784 365.1589861751152 295.4942396313364 361.17511520737327 295.45046082949307 357.7603686635945 292.12327188940094 353.82027649769583 289.80299539170505 353.0760368663594 286.91359447004606 360.16820276497697 283.5426267281106 356.4470046082949 283.10483870967744 351.7626728110599 285.8191244239631 352.41935483870964 286.4758064516129 351.23732718894007 290.10944700460834 351.5 291.5979262672811 349.1359447004608 292.69239631336404 350.6244239631336 296.9389400921659 351.67511520737327 298.9089861751152 350.84331797235023 297.68317972350235 348.08525345622115 301.2730414746544 346.2027649769585 300.8352534562212 341.38709677419354 306.0887096774194 338.8917050691244 305.56336405529953 337.4470046082949 307.971198156682 337.1405529953917 311.21082949308754 338.6290322580645 315.9389400921659 343.31336405529953 318.0841013824885 343.31336405529953 320.7983870967742 345.10829493087556 325.6140552995392 344.9769585253456 327.67165898617515 342.5691244239631 329.64170506912444 342.0875576036866 329.3352534562212 343.66359447004606 331.2177419354839 346.50921658986175 331.43663594470047 349.04838709677415 335.2016129032258 351.1059907834101 332.2684331797235 351.7626728110599 332.3122119815668 355.352534562212 329.0725806451613 353.0322580645161 324.91359447004606 352.5069124423963 321.45506912442397 354.08294930875576 313.04953917050693 352.15668202764977 311.91129032258067 353.60138248847926 309.19700460829495 353.60138248847926 308.14631336405535 356.1405529953917 304.8191244239631 353.7327188940092 302.93663594470047 354.65207373271886 303.1993087557604 358.6359447004608 306.6578341013825 362.4884792626728 307.8836405529954 366.3847926267281 316.6831797235023 374.4400921658986 318.17165898617515 374.7465437788018 322.0241935483871 381.22580645161287 Z" vector-effect="non-scaling-stroke" stroke="silver" stroke-width="1" class=" highcharts-name-croatia highcharts-key-hr"></path><path fill="#f7a35c" d="M 364.0956221198157 355.2649769585253 L 366.5910138248848 358.3294930875576 364.4458525345622 361.74423963133637 364.4020737327189 364.15207373271886 366.67857142857144 368.0921658986175 371.53801843317973 370.7626728110599 369.91820276497697 375.09677419354836 367.9043778801843 375.6658986175115 367.8168202764977 379.5622119815668 368.95506912442397 381.5322580645161 367.64170506912444 382.9331797235023 366.72235023041475 382.4078341013825 360.46198156682027 385.03456221198155 361.46889400921657 379.38709677419354 357.70391705069125 379.036866359447 354.37672811059906 375.05299539170505 351.53110599078343 373.34562211981563 347.9412442396313 379.43087557603684 343.56336405529953 376.3663594470046 340.58640552995394 376.05990783410135 336.0771889400922 371.9884792626728 338.66013824884794 371.28801843317973 338.17857142857144 368.7488479262673 335.72695852534565 366.55990783410135 339.14170506912444 365.11520737327186 334.7200460829493 362.4884792626728 333.88824884792626 359.5990783410138 335.4642857142857 354.6958525345622 332.3122119815668 355.352534562212 332.2684331797235 351.7626728110599 335.2016129032258 351.1059907834101 331.43663594470047 349.04838709677415 331.2177419354839 346.50921658986175 329.3352534562212 343.66359447004606 329.64170506912444 342.0875576036866 332.7062211981567 341.036866359447 334.9389400921659 338.4101382488479 341.06797235023043 338.278801843318 346.4965437788018 342.0437788018433 346.75921658986175 345.3271889400921 348.991935483871 347.03456221198155 353.89516129032256 348.6543778801843 353.36981566820276 352.37557603686633 356.30299539170505 354.17050691244236 359.4988479262673 354.12672811059906 361.38133640552996 355.52764976958525 363.08870967741933 352.41935483870964 366.4596774193548 353.7764976958525 364.0956221198157 355.2649769585253 Z" vector-effect="non-scaling-stroke" stroke="silver" stroke-width="1" class=" highcharts-name-republic-of serbia highcharts-key-rs"></path></g></g><g class="highcharts-markers" visibility="visible"  transform="translate(10,10) scale(1 1)" clip-path="none"></g></g><g class="highcharts-axis-labels highcharts-xaxis-labels" ></g><g class="highcharts-axis-labels highcharts-yaxis-labels" ></g><g class="highcharts-tooltip"  style="cursor:default;padding:0;white-space:nowrap;" transform="translate(0,-9999)"><path fill="none" d="M 3 0 L 13 0 C 16 0 16 0 16 3 L 16 13 C 16 16 16 16 13 16 L 3 16 C 0 16 0 16 0 13 L 0 3 C 0 0 0 0 3 0"  stroke="black" stroke-opacity="0.049999999999999996" stroke-width="5" transform="translate(1, 1)"></path><path fill="none" d="M 3 0 L 13 0 C 16 0 16 0 16 3 L 16 13 C 16 16 16 16 13 16 L 3 16 C 0 16 0 16 0 13 L 0 3 C 0 0 0 0 3 0"  stroke="black" stroke-opacity="0.09999999999999999" stroke-width="3" transform="translate(1, 1)"></path><path fill="none" d="M 3 0 L 13 0 C 16 0 16 0 16 3 L 16 13 C 16 16 16 16 13 16 L 3 16 C 0 16 0 16 0 13 L 0 3 C 0 0 0 0 3 0"  stroke="black" stroke-opacity="0.15" stroke-width="1" transform="translate(1, 1)"></path><path fill="rgb(249, 249, 249)" fill-opacity=" .85" d="M 3 0 L 13 0 C 16 0 16 0 16 3 L 16 13 C 16 16 16 16 13 16 L 3 16 C 0 16 0 16 0 13 L 0 3 C 0 0 0 0 3 0"></path><text x="8"  style="font-size:12px;color:#333333;fill:#333333;" y="21"></text></g></svg>